<svg width="20" height="21" viewBox="0 0 20 21" fill="none" xmlns="http://www.w3.org/2000/svg">
<path d="M8.33333 3H3.33333C3.11232 3 2.90036 3.0878 2.74408 3.24408C2.5878 3.40036 2.5 3.61232 2.5 3.83333V8.83333C2.5 9.05435 2.5878 9.26631 2.74408 9.42259C2.90036 9.57887 3.11232 9.66667 3.33333 9.66667H8.33333C8.55435 9.66667 8.76631 9.57887 8.92259 9.42259C9.07887 9.26631 9.16667 9.05435 9.16667 8.83333V3.83333C9.16667 3.61232 9.07887 3.40036 8.92259 3.24408C8.76631 3.0878 8.55435 3 8.33333 3ZM7.5 8H4.16667V4.66667H7.5V8ZM16.6667 3H11.6667C11.4457 3 11.2337 3.0878 11.0774 3.24408C10.9211 3.40036 10.8333 3.61232 10.8333 3.83333V8.83333C10.8333 9.05435 10.9211 9.26631 11.0774 9.42259C11.2337 9.57887 11.4457 9.66667 11.6667 9.66667H16.6667C16.8877 9.66667 17.0996 9.57887 17.2559 9.42259C17.4122 9.26631 17.5 9.05435 17.5 8.83333V3.83333C17.5 3.61232 17.4122 3.40036 17.2559 3.24408C17.0996 3.0878 16.8877 3 16.6667 3ZM15.8333 8H12.5V4.66667H15.8333V8ZM8.33333 11.3333H3.33333C3.11232 11.3333 2.90036 11.4211 2.74408 11.5774C2.5878 11.7337 2.5 11.9457 2.5 12.1667V17.1667C2.5 17.3877 2.5878 17.5996 2.74408 17.7559C2.90036 17.9122 3.11232 18 3.33333 18H8.33333C8.55435 18 8.76631 17.9122 8.92259 17.7559C9.07887 17.5996 9.16667 17.3877 9.16667 17.1667V12.1667C9.16667 11.9457 9.07887 11.7337 8.92259 11.5774C8.76631 11.4211 8.55435 11.3333 8.33333 11.3333ZM7.5 16.3333H4.16667V13H7.5V16.3333ZM14.1667 11.3333C12.3283 11.3333 10.8333 12.8283 10.8333 14.6667C10.8333 16.505 12.3283 18 14.1667 18C16.005 18 17.5 16.505 17.5 14.6667C17.5 12.8283 16.005 11.3333 14.1667 11.3333ZM14.1667 16.3333C13.2475 16.3333 12.5 15.5858 12.5 14.6667C12.5 13.7475 13.2475 13 14.1667 13C15.0858 13 15.8333 13.7475 15.8333 14.6667C15.8333 15.5858 15.0858 16.3333 14.1667 16.3333Z" fill="#194EB4"/>
</svg>
